<svg width="62" height="65" viewBox="0 0 62 65" fill="none" xmlns="http://www.w3.org/2000/svg">
<path d="M38.9471 56.6684C31.2772 56.6684 24.1318 52.6857 19.8329 46.0149C18.9616 44.6627 19.3009 42.8262 20.5905 41.9127C21.8806 40.9994 23.632 41.3548 24.5034 42.7069C27.7526 47.7491 33.152 50.7594 38.9471 50.7594C48.5506 50.7594 56.3637 42.5683 56.3637 32.5001C56.3637 22.4318 48.5506 14.2408 38.9471 14.2408C33.1349 14.2408 27.7266 17.2647 24.4799 22.3298C23.6113 23.6844 21.8607 24.0441 20.5688 23.134C19.2771 22.2238 18.9337 20.388 19.8017 19.0337C24.0975 12.3326 31.2546 8.33179 38.9471 8.33179C51.6583 8.33179 62 19.1736 62 32.5001C62 45.8265 51.6583 56.6684 38.9471 56.6684Z" fill="white"/>
<path d="M42.2724 29.5455H9.62187L13.2656 25.7256C14.3662 24.5718 14.3662 22.7011 13.2656 21.5473C12.1652 20.3937 10.3806 20.3937 9.28014 21.5473L0.825496 30.4108C0.821379 30.4151 0.817988 30.4198 0.813871 30.4242C0.753566 30.4881 0.695562 30.5548 0.640828 30.6245C0.623875 30.6459 0.609586 30.6691 0.59348 30.6909C0.553035 30.7452 0.512711 30.7998 0.476019 30.8571C0.464031 30.8764 0.453617 30.8968 0.441629 30.9164C0.40409 30.9784 0.367035 31.0406 0.333613 31.1056C0.326227 31.1199 0.320777 31.135 0.313512 31.1493C0.278516 31.2207 0.24473 31.2928 0.215426 31.3672C0.21143 31.3772 0.208523 31.3879 0.204285 31.3981C0.174254 31.477 0.145797 31.557 0.122184 31.6391C0.119035 31.6501 0.117098 31.6613 0.11407 31.6724C0.0915469 31.7534 0.071082 31.8349 0.0550977 31.9185C0.050375 31.9438 0.0481953 31.9696 0.043957 31.995C0.032332 32.0645 0.020707 32.134 0.0139258 32.2051C0.00484375 32.3027 0 32.4012 0 32.5001C0 32.599 0.00484375 32.6975 0.0140469 32.7951C0.0209492 32.8672 0.0328164 32.9376 0.0444414 33.0079C0.0485586 33.0323 0.0502539 33.0573 0.0550977 33.0815C0.0712031 33.1665 0.0921523 33.2494 0.114797 33.3315C0.117582 33.3412 0.119156 33.3514 0.122184 33.3611C0.146402 33.4444 0.17498 33.5258 0.205738 33.6061C0.209129 33.6147 0.211551 33.624 0.214941 33.6326C0.245215 33.7088 0.279605 33.7826 0.315449 33.8552C0.321625 33.868 0.326953 33.8813 0.33325 33.8942C0.367762 33.9613 0.406148 34.0259 0.445019 34.0899C0.455676 34.1073 0.464758 34.1256 0.475414 34.1425C0.514285 34.2033 0.55691 34.2613 0.600019 34.3188C0.613703 34.3374 0.625934 34.3568 0.640223 34.3749C0.698711 34.4496 0.760711 34.5213 0.825496 34.5896L9.27966 43.4527C9.82991 44.0296 10.5513 44.3182 11.2725 44.3182C11.9937 44.3182 12.7151 44.0296 13.2651 43.4527C14.3657 42.2988 14.3657 40.4282 13.2651 39.2744L9.6215 35.4546H42.272C43.8284 35.4546 45.0902 34.1317 45.0902 32.5C45.0902 30.8682 43.8288 29.5455 42.2724 29.5455Z" fill="#FF9F22"/>
</svg>
