<svg width="55" height="55" viewBox="0 0 55 55" fill="none" xmlns="http://www.w3.org/2000/svg">
<path d="M22.2363 21.4844C22.2363 20.2978 21.2745 19.3359 20.0879 19.3359H11.4941C10.3076 19.3359 9.3457 20.2978 9.3457 21.4844V25.3385H0V29.6353H9.3457V33.3008C9.3457 34.4874 10.3076 35.4492 11.4941 35.4492H20.0879C21.2745 35.4492 22.2363 34.4874 22.2363 33.3008V29.6353H55V25.3385H22.2363V21.4844ZM17.9395 31.1523H13.6426V23.6328H17.9395V31.1523Z" fill="white"/>
<path d="M46.2988 41.0352C46.2988 39.8486 45.337 38.8867 44.1504 38.8867H35.5566C34.3701 38.8867 33.4082 39.8486 33.4082 41.0352V44.7949H0V49.0918H33.4082V52.8516C33.4082 54.0381 34.3701 55 35.5566 55H44.1504C45.337 55 46.2988 54.0381 46.2988 52.8516V49.0918H55V44.7949H46.2988V41.0352ZM42.002 50.7031H37.7051V43.1836H42.002V50.7031Z" fill="white"/>
<path d="M46.5137 6.01562V2.14844C46.5137 0.961856 45.5518 0 44.3652 0H35.7715C34.5849 0 33.623 0.961856 33.623 2.14844V6.01562H0V10.3125H33.623V13.9648C33.623 15.1514 34.5849 16.1133 35.7715 16.1133H44.3652C45.5518 16.1133 46.5137 15.1514 46.5137 13.9648V10.3125H55V6.01562H46.5137ZM42.2168 11.8164H37.9199V4.29688H42.2168V11.8164Z" fill="white"/>
</svg>
